# xmcd
#
# Track frame offsets:
#	150
#	16621
#	32618
#	46725
#	53825
#
# Disc length: 941 seconds
# Revision: 0
# Processed by: cddbd v1.5.2PL0 Copyright (c) Steve Scherf et al.
# Submitted via: dBpowerAMP V12.0
#
DISCID=2c03ab05
DTITLE=The Black Feathers - 3 Stars EP
DYEAR=2019
DGENRE=Country
TTITLE0=3 Stars (and a country song)
TTITLE1=Glory Box (demo)
TTITLE2=Northern Lights (demo)
TTITLE3=You've Got a Friend in Me (demo)
TTITLE4=3 Stars (Live at Tradfest)
EXTD=
EXTT0=
EXTT1=
EXTT2=
EXTT3=
EXTT4=
PLAYORDER=
